# xmcd
#
# Track frame offsets: 
#        150
#        23764
#        45607
#        63741
#        90493
#        116736
#        136423
#        161030
#        174749
#        196633
#        222162
#        245116
#
# Disc length: 3493 seconds
#
# Revision: 0
# Processed by: cddbd v1.5.2PL0 Copyright (c) Steve Scherf et al.
# Submitted via: ExactAudioCopy v0.99pb3
#
DISCID=aa0da30c
DTITLE=Calvin Suggs - Celebrate! (2007)
DYEAR=2007
DGENRE=
TTITLE0=His Glory
TTITLE1=Celebrate
TTITLE2=We Come to Worship
TTITLE3=Happy (remix)
TTITLE4=Total Praise
TTITLE5=Hold Tight
TTITLE6=I Can Make It
TTITLE7=Hallelujah (mix)
TTITLE8=We Are One
TTITLE9=This Is The Day
TTITLE10=Because of You
TTITLE11=You're The One
EXTD=
EXTT0=
EXTT1=
EXTT2=
EXTT3=
EXTT4=
EXTT5=
EXTT6=
EXTT7=
EXTT8=
EXTT9=
EXTT10=
EXTT11=
PLAYORDER=
